<?xml version="1.0" encoding="utf-8"?>
<!-- Generator: Adobe Illustrator 24.2.3, SVG Export Plug-In . SVG Version: 6.00 Build 0)  -->
<svg version="1.1" id="Layer_1" xmlns="http://www.w3.org/2000/svg" xmlns:xlink="http://www.w3.org/1999/xlink" x="0px" y="0px"
	 viewBox="0 0 785 155" style="enable-background:new 0 0 785 155;" xml:space="preserve">
<style type="text/css">
	.st0{fill:url(#SVGID_1_);}
	.st1{fill:#FFFFFF;}
	.st2{fill:#72BE44;}
	.st3{fill:#2C7FFF;}
</style>
<g>
	<g>
		<radialGradient id="SVGID_1_" cx="71.554" cy="71.4857" r="68.9177" gradientUnits="userSpaceOnUse">
			<stop  offset="0" style="stop-color:#44A0FC"/>
			<stop  offset="0.2972" style="stop-color:#3586FF"/>
			<stop  offset="0.8445" style="stop-color:#2C7FFF"/>
			<stop  offset="1" style="stop-color:#026DC6"/>
		</radialGradient>
		<circle class="st0" cx="71.55" cy="71.49" r="68.9"/>
	</g>
	<g>
		<path class="st1" d="M78.62,21.2c-0.16,6.18-2.35,11.35-6.73,15.57c-7.16,6.89-14.31,13.77-21.46,20.67
			c-2.4,2.31-2.91,5.13-1.42,7.57c0.43,0.7,0.98,1.18,1.73,1.54c5.35,2.6,10.7,5.2,16.02,7.87c7.7,3.86,9.75,13.72,4.21,20.3
			c-1.73,2.06-1.02,2.14-3.75,0.7c-8.99-4.71-17.97-9.43-27-14.06c-5.84-3-9.96-7.46-11.65-13.81c-2.16-8.11-0.39-15.32,5.64-21.35
			C46.76,33.63,59.32,21.06,71.87,8.5c1.39-1.39,1.37-1.39,2.55,0.21C77.2,12.45,78.49,16.68,78.62,21.2z"/>
		<path class="st1" d="M64.52,121.64c0.16-6.12,2.39-11.26,6.79-15.48c7.23-6.94,14.44-13.9,21.65-20.86
			c1.79-1.73,2.44-3.79,1.67-6.21c-0.39-1.22-1.11-2.1-2.32-2.68c-5.24-2.53-10.43-5.15-15.66-7.69
			c-7.86-3.81-10.06-13.65-4.53-20.42c1.55-1.89,1.55-1.9,3.73-0.76c9.27,4.83,18.54,9.67,27.8,14.51
			c13.15,6.87,15.81,24.18,5.32,34.69c-12.74,12.76-25.5,25.5-38.23,38.27c-0.68,0.68-0.99,0.65-1.58-0.09
			C66.06,131.01,64.62,126.54,64.52,121.64z"/>
	</g>
	<g>
		<g>
			<path class="st2" d="M25.43,48.02c-2.26,5.4-3.37,10.98-2.55,16.85c0.82,5.85,3.15,11.03,6.8,15.68
				c-3.87-2.64-6.39-6.3-7.83-10.66C19.25,62.03,20.39,54.7,25.43,48.02z"/>
			<path class="st2" d="M23.63,78.31c-7.71-2.6-9.98-20.37-3.32-26.62C16.13,61.39,17.39,70.08,23.63,78.31z"/>
		</g>
		<g>
			<path class="st2" d="M118.02,94.95c4.69-12.42,2.34-23.29-6.53-32.8c3.05,0.09,8.8,7.98,10.38,14.42
				C123.72,84.14,120.75,92.89,118.02,94.95z"/>
			<path class="st2" d="M123.26,90.56c3.54-9.51,1.91-18.1-4.7-25.78c1.95-0.17,5.97,5.09,7.37,9.61
				C127.78,80.33,126.21,88.26,123.26,90.56z"/>
		</g>
	</g>
	<polygon points="391.29,140.18 759.84,140.18 778.46,11.67 409.91,11.67 	"/>
	<g>
		<g>
			<path class="st3" d="M185.64,121.27c-7.34,0-13.65-0.68-18.93-2.03c-3.35-0.86-4.85-3.14-4.49-6.84l0.11-1.39
				c0.36-3.71,2.42-5.56,6.2-5.56h7.81c10.98,0,17.93-2.28,20.85-6.84c1.14-1.85,1.92-3.28,2.35-4.28c0.5-1.14,0.41-1.87-0.27-2.19
				c-0.68-0.32-1.48-0.05-2.41,0.8c-4.49,4.13-10.19,6.38-17.11,6.74c-7.34,0.36-12.17-1.92-14.49-6.84
				c-2.32-4.92-2.73-12.12-1.23-21.6c0.57-3.56,1.26-6.72,2.08-9.46c0.82-2.74,1.71-5.06,2.67-6.95c0.96-1.89,2.16-3.48,3.58-4.76
				c1.43-1.28,2.78-2.28,4.06-2.99c1.28-0.71,2.94-1.26,4.97-1.66c2.03-0.39,3.87-0.64,5.51-0.75c1.64-0.11,3.74-0.16,6.31-0.16
				c9.12,0,17.75,0.68,25.88,2.03c4.35,0.71,6.2,3.39,5.56,8.02l-4.92,35.29c-0.71,5.42-1.91,10.09-3.58,14.01
				c-1.68,3.92-3.55,6.99-5.61,9.2c-2.07,2.21-4.58,3.96-7.54,5.24c-2.96,1.28-5.74,2.1-8.34,2.46
				C192.07,121.09,189.06,121.27,185.64,121.27z M189.38,83.53c2.99-0.57,6.06-2.92,9.2-7.06c0.71-0.86,1.1-1.82,1.18-2.89
				l1.71-11.76c0.21-1.78-0.57-2.67-2.35-2.67h-2.46c-3.35,0-5.61,0.75-6.79,2.25c-1.18,1.5-2.16,4.56-2.94,9.2
				c-0.5,2.78-0.82,5.03-0.96,6.74c-0.14,1.71-0.11,3.07,0.11,4.06c0.21,1,0.57,1.66,1.07,1.98
				C187.63,83.69,188.38,83.74,189.38,83.53z"/>
			<path class="st3" d="M268.61,52.41c0.64-4.28,3.14-6.42,7.48-6.42h8.23c2.35,0,4.1,0.64,5.24,1.92c1.14,1.28,1.53,3.1,1.18,5.45
				l-5.45,39.67c-0.5,4.28-2.96,6.42-7.38,6.42h-4.28c-4.49,0-6.84-2.25-7.06-6.74v-0.11c-0.14-1.35-0.71-1.6-1.71-0.75
				c-6.77,6.06-13.51,9.09-20.21,9.09c-5.56,0-9.61-1.34-12.14-4.01c-2.53-2.67-3.44-6.47-2.73-11.39l4.6-33.15
				c0.5-4.28,2.96-6.42,7.38-6.42h8.55c2.35,0,4.08,0.64,5.19,1.92c1.1,1.28,1.51,3.1,1.23,5.45L253,79.25
				c-0.29,1.92,0.53,2.89,2.46,2.89c2.64,0,5.52-1.1,8.66-3.31c0.5-0.36,0.82-0.89,0.96-1.6L268.61,52.41z"/>
			<path class="st3" d="M317.26,45.99c1.57,0,2.87,0.29,3.9,0.86c1.03,0.57,1.76,1.41,2.19,2.51c0.43,1.11,0.54,2.44,0.32,4.01
				l-5.56,39.67c-0.57,4.28-3.03,6.42-7.38,6.42h-8.55c-2.35,0-4.1-0.64-5.24-1.92c-1.14-1.28-1.53-3.1-1.18-5.45l5.56-39.67
				c0.57-4.28,3.03-6.42,7.38-6.42H317.26z M325.49,19.69c3.14-2.07,5.45-1.39,6.95,2.03l2.57,5.67c1.5,3.28,0.57,5.53-2.78,6.74
				l-18.93,6.84c-2.99,1.07-5.24,0.21-6.74-2.57l-0.32-0.64c-1.64-2.92-1.07-5.27,1.71-7.06L325.49,19.69z"/>
			<path class="st3" d="M345.38,100.74c-7.27,0.28-12.1-2.1-14.49-7.16c-2.39-5.06-2.73-12.51-1.02-22.35
				c1.85-10.62,5.08-17.73,9.68-21.33c4.6-3.6,11.92-5.4,21.97-5.4c10.12,0,17.82,0.64,23.1,1.92c4.28,1,6.13,3.67,5.56,8.02
				l-5.45,38.6c-0.64,4.28-3.1,6.42-7.38,6.42h-3.96c-4.56,0-6.92-2.32-7.06-6.95v-0.75c0-1.43-0.53-1.64-1.6-0.64l-1.6,1.6
				c-0.93,0.93-1.84,1.75-2.73,2.46c-0.89,0.71-2.07,1.53-3.53,2.46c-1.46,0.93-3.17,1.66-5.13,2.19
				C349.78,100.37,347.66,100.67,345.38,100.74z M351.8,81.23c0.21,1.82,1.28,2.58,3.21,2.3c1.92-0.28,3.74-1.1,5.45-2.46
				c1.71-1.35,2.99-2.81,3.85-4.38c0.43-0.86,0.71-1.78,0.86-2.78l1.71-12.51c0.21-1.5-0.43-2.25-1.92-2.25h-2.67
				c-2.64,0-4.7,0.73-6.2,2.19c-1.5,1.46-2.6,4.54-3.31,9.25C351.91,75.86,351.58,79.41,351.8,81.23z"/>
		</g>
	</g>
	<g>
		<g>
			<path class="st1" d="M441.23,44.5c7.34,0,14.33,0.5,20.96,1.5c3.99,0.43,5.7,2.78,5.13,7.06l-0.11,1.07
				c-0.5,3.85-2.71,5.77-6.63,5.77h-14.65c-3.99,0-6.52,0.05-7.59,0.16c-1.07,0.11-1.64,0.41-1.71,0.91
				c-0.14,0.57,0.16,1.05,0.91,1.44c0.75,0.39,2.19,0.87,4.33,1.44l11.65,3.1c9.2,2.5,13.26,8.13,12.19,16.89
				c-0.79,6.63-3.33,11.08-7.65,13.37c-4.31,2.28-10.82,3.42-19.51,3.42c-7.34,0-14.4-0.46-21.17-1.39
				c-4.13-0.57-5.92-2.92-5.35-7.06l0.11-1.07c0.57-3.85,2.78-5.77,6.63-5.77h12.19c5.42,0,8.94-0.11,10.58-0.32
				c1.64-0.21,2.53-0.68,2.67-1.39c0.07-0.5-0.25-0.93-0.96-1.28c-0.71-0.36-2.32-0.89-4.81-1.6l-11.23-3.21
				c-9.34-2.64-13.29-8.73-11.87-18.28c0.71-4.99,2.98-8.7,6.79-11.12C425.95,45.71,432.32,44.5,441.23,44.5z"/>
			<path class="st1" d="M516.4,45.03c7.41,0,12.31,2.34,14.7,7c2.39,4.67,2.94,12.07,1.66,22.19c-1.28,10.05-3.85,17.02-7.7,20.9
				c-3.85,3.89-8.84,5.83-14.97,5.83c-5.42,0-10.37-0.32-14.86-0.96c-1.5-0.21-2.25,0.43-2.25,1.92c-0.14,3.71-0.39,6.63-0.75,8.77
				l-0.75,3.96c-0.71,4.13-3.21,6.2-7.48,6.2h-8.66c-2.35,0-4.08-0.64-5.19-1.92c-1.1-1.28-1.51-3.1-1.23-5.45l8.66-61.05
				c0.5-4.28,2.96-6.42,7.38-6.42h4.49c4.49,0,6.84,2.25,7.06,6.74v0.32c0.14,0.93,0.5,1.14,1.07,0.64
				C503.92,47.92,510.19,45.03,516.4,45.03z M507.09,63.32c-2.5,0.21-5.06,1.18-7.7,2.89c-0.93,0.5-1.43,1.32-1.5,2.46l-2.25,16.47
				c-0.21,1.5,0.46,2.25,2.03,2.25h2.67c3.21,0,5.42-0.76,6.63-2.3c1.21-1.53,2.17-4.93,2.89-10.21c0.71-3.85,0.92-6.77,0.64-8.77
				C510.23,64.1,509.09,63.17,507.09,63.32z"/>
			<path class="st1" d="M571.89,44.5c10.91,0,18.55,2.25,22.94,6.74s5.83,11.98,4.33,22.45c-1.43,10.05-4.54,17.07-9.36,21.06
				c-4.81,3.99-12.53,5.99-23.15,5.99c-10.84,0-18.5-2.23-22.99-6.68c-4.49-4.45-5.99-11.82-4.49-22.08
				c1.43-10.19,4.54-17.32,9.36-21.38S561.12,44.5,571.89,44.5z M571.46,59.68c-2.85,0-4.83,0.87-5.93,2.62
				c-1.11,1.75-2.08,5.54-2.94,11.39c-0.71,4.92-0.77,8.13-0.16,9.62c0.6,1.5,2.3,2.25,5.08,2.25c2.71,0,4.58-0.84,5.61-2.51
				c1.03-1.67,1.98-5.36,2.83-11.07c0.78-5.06,0.89-8.38,0.32-9.94C575.7,60.47,574.1,59.68,571.46,59.68z"/>
			<path class="st1" d="M646.31,45.03c2.42-0.36,4.22,0.18,5.4,1.6c1.18,1.43,1.48,3.39,0.91,5.88l-1.39,6.42
				c-0.93,4.06-3.49,6.13-7.7,6.2c-3.92,0.07-7.63,0.39-11.12,0.96c-1.21,0.21-1.89,0.93-2.03,2.14l-3.42,24.81
				c-0.57,4.28-3.03,6.42-7.38,6.42h-8.55c-2.35,0-4.08-0.64-5.19-1.92c-1.11-1.28-1.52-3.1-1.23-5.45l5.56-39.67
				c0.5-4.28,2.96-6.42,7.38-6.42h4.38c4.06,0,6.42,1.82,7.06,5.45v0.11c0.21,1.07,0.89,1.18,2.03,0.32
				C636.01,48.03,641.1,45.74,646.31,45.03z"/>
			<path class="st1" d="M675.93,100.95c-5.49,0-9.64-1.67-12.46-5.03c-2.82-3.35-3.83-7.81-3.05-13.37l3.1-21.28
				c0.14-1.21-0.39-1.82-1.6-1.82h-0.96c-2,0-3.49-0.55-4.49-1.66c-1-1.1-1.39-2.66-1.18-4.65l0.11-1.18
				c0.57-3.63,2.64-5.56,6.2-5.77l2.57-0.11c1.14-0.14,1.75-0.68,1.82-1.6l0.86-6.09c0.64-4.28,3.14-6.42,7.48-6.42h8.13
				c2.35,0,4.08,0.64,5.19,1.92c1.1,1.28,1.51,3.1,1.23,5.45l-0.75,4.81c-0.14,1.21,0.39,1.82,1.6,1.82h4.6c2,0,3.49,0.55,4.49,1.66
				c1,1.11,1.35,2.69,1.07,4.76l-0.21,1.5c-0.5,3.71-2.6,5.56-6.31,5.56h-5.77c-1.14,0-1.75,0.53-1.82,1.6l-2.78,19.35
				c-0.21,1.43-0.12,2.35,0.27,2.78c0.39,0.43,1.41,0.64,3.05,0.64h0.53c3.78,0,5.84,1.92,6.2,5.77l0.32,3.31
				c0.36,3.92-1.25,6.2-4.81,6.84C684.41,100.56,680.2,100.95,675.93,100.95z"/>
			<path class="st1" d="M729.28,44.5c7.34,0,14.33,0.5,20.96,1.5c3.99,0.43,5.7,2.78,5.13,7.06l-0.11,1.07
				c-0.5,3.85-2.71,5.77-6.63,5.77h-14.65c-3.99,0-6.52,0.05-7.59,0.16c-1.07,0.11-1.64,0.41-1.71,0.91
				c-0.14,0.57,0.16,1.05,0.91,1.44c0.75,0.39,2.19,0.87,4.33,1.44l11.65,3.1c9.2,2.5,13.26,8.13,12.19,16.89
				c-0.79,6.63-3.33,11.08-7.65,13.37c-4.31,2.28-10.82,3.42-19.51,3.42c-7.34,0-14.4-0.46-21.17-1.39
				c-4.13-0.57-5.92-2.92-5.35-7.06l0.11-1.07c0.57-3.85,2.78-5.77,6.63-5.77h12.19c5.42,0,8.94-0.11,10.58-0.32
				c1.64-0.21,2.53-0.68,2.67-1.39c0.07-0.5-0.25-0.93-0.96-1.28c-0.71-0.36-2.32-0.89-4.81-1.6l-11.23-3.21
				c-9.34-2.64-13.29-8.73-11.87-18.28c0.71-4.99,2.98-8.7,6.79-11.12C714.01,45.71,720.37,44.5,729.28,44.5z"/>
		</g>
	</g>
	<polygon class="st2" points="406.99,8.3 387.39,143.56 609.08,143.56 609.96,136.81 395.19,136.81 412.83,15.05 774.56,15.05 
		756.92,136.81 750.96,136.81 750.08,143.56 762.76,143.56 782.36,8.3 	"/>
	<g>
		<path class="st3" d="M624.29,150.69c-1.16,1.16-2.55,1.74-4.15,1.74c-1.6,0-2.98-0.58-4.15-1.74c-1.16-1.16-1.75-2.55-1.75-4.15
			c0-1.6,0.58-2.98,1.75-4.15c1.16-1.16,2.54-1.75,4.15-1.75c1.6,0,2.98,0.58,4.15,1.75c1.16,1.16,1.74,2.54,1.74,4.15
			C626.03,148.14,625.45,149.52,624.29,150.69z"/>
		<path class="st3" d="M646.34,122.35c3.58,0,6.84,0.38,9.78,1.14c2.25,0.57,3.11,2.08,2.57,4.52l-0.11,0.63
			c-0.5,2.17-1.87,3.26-4.12,3.26h-6.69c-1.68,0-2.86,0.38-3.55,1.14c-0.69,0.76-1.18,2.17-1.49,4.23c-0.34,2.33-0.28,3.85,0.2,4.58
			c0.48,0.72,1.59,1.09,3.35,1.09c2.44,0,4.42-0.04,5.95-0.11c2.44-0.11,3.79,0.99,4.06,3.32l0.06,0.74c0.3,2.33-0.59,3.79-2.69,4.4
			c-2.71,0.76-5.87,1.14-9.49,1.14c-5.22,0-9.05-1.23-11.47-3.69c-2.42-2.46-3.25-6.4-2.49-11.81c0.72-5.22,2.28-8.96,4.66-11.21
			C637.25,123.47,641.08,122.35,646.34,122.35z"/>
		<path class="st3" d="M678.02,122.35c5.83,0,9.92,1.2,12.27,3.6c2.34,2.4,3.12,6.41,2.32,12.01c-0.76,5.38-2.43,9.13-5,11.27
			c-2.57,2.14-6.7,3.2-12.38,3.2c-5.8,0-9.89-1.19-12.3-3.58c-2.4-2.38-3.2-6.32-2.4-11.81c0.76-5.45,2.43-9.27,5-11.44
			C668.1,123.43,672.26,122.35,678.02,122.35z M677.79,130.47c-1.53,0-2.58,0.47-3.17,1.4c-0.59,0.93-1.12,2.96-1.57,6.09
			c-0.38,2.63-0.41,4.35-0.09,5.15c0.32,0.8,1.23,1.2,2.72,1.2c1.45,0,2.45-0.45,3-1.34c0.55-0.9,1.06-2.87,1.52-5.92
			c0.42-2.71,0.48-4.48,0.17-5.32C680.06,130.89,679.2,130.47,677.79,130.47z"/>
		<path class="st3" d="M735.73,122.35c2.82,0,4.9,0.73,6.23,2.17c1.33,1.45,1.81,3.47,1.43,6.06l-2.52,17.73
			c-0.27,2.29-1.58,3.43-3.95,3.43h-4.4c-1.26,0-2.19-0.34-2.8-1.03c-0.61-0.69-0.82-1.66-0.63-2.92l1.89-13.84
			c0.15-0.99-0.21-1.49-1.09-1.49c-0.95,0-2.08,0.42-3.37,1.26c-0.54,0.31-0.82,0.74-0.86,1.32l-1.89,13.27
			c-0.31,2.29-1.62,3.43-3.95,3.43h-4c-1.26,0-2.19-0.34-2.8-1.03c-0.61-0.69-0.82-1.66-0.63-2.92l1.89-13.84
			c0.19-0.99-0.17-1.49-1.09-1.49c-0.99,0-2.14,0.38-3.43,1.14c-0.53,0.31-0.82,0.74-0.86,1.32l-1.83,13.38
			c-0.31,2.29-1.62,3.43-3.95,3.43h-4.46c-1.26,0-2.18-0.34-2.77-1.03c-0.59-0.69-0.81-1.66-0.66-2.92l2.97-21.22
			c0.27-2.29,1.58-3.43,3.95-3.43h2.29c1.14,0,2.01,0.27,2.6,0.8c0.59,0.54,0.98,1.37,1.17,2.52l0.06,0.23
			c0,0.34,0.15,0.4,0.46,0.17c3.16-3.01,6.5-4.52,10.01-4.52c3.66,0,6,1.16,7.03,3.49c0.15,0.38,0.42,0.42,0.8,0.11
			C729.4,123.55,732.45,122.35,735.73,122.35z"/>
	</g>
</g>
</svg>
