<svg id="Layer_1" data-name="Layer 1" xmlns="http://www.w3.org/2000/svg" xmlns:xlink="http://www.w3.org/1999/xlink" viewBox="0 0 779.73 140.99"><defs><style>.cls-1{fill:url(#radial-gradient);}.cls-2{fill:#fff;}.cls-3{fill:#72be44;}.cls-4{stroke:#72be44;stroke-miterlimit:10;stroke-width:6.75px;}.cls-5{fill:#2c7fff;}</style><radialGradient id="radial-gradient" cx="68.92" cy="68.92" r="68.92" gradientUnits="userSpaceOnUse"><stop offset="0" stop-color="#44a0fc"/><stop offset="0.3" stop-color="#3586ff"/><stop offset="0.84" stop-color="#2c7fff"/><stop offset="1" stop-color="#026dc6"/></radialGradient></defs><circle class="cls-1" cx="68.92" cy="68.92" r="68.9"/><path class="cls-2" d="M110.57,44.71a21.5,21.5,0,0,1-6.73,15.58Q93.1,70.63,82.37,81C80,83.27,79.46,86.09,81,88.52a3.89,3.89,0,0,0,1.72,1.54c5.35,2.6,10.71,5.2,16,7.87a13.14,13.14,0,0,1,4.22,20.3c-1.73,2-1,2.13-3.75.7-9-4.71-18-9.43-27-14.06-5.84-3-10-7.46-11.65-13.82-2.16-8.1-.39-15.32,5.63-21.35Q85,50.86,103.82,32c1.39-1.39,1.37-1.38,2.55.21A21.53,21.53,0,0,1,110.57,44.71Z" transform="translate(-34.59 -26.08)"/><path class="cls-2" d="M96.47,145.16a21.4,21.4,0,0,1,6.78-15.48q10.85-10.41,21.65-20.86a5.7,5.7,0,0,0,1.67-6.21,4.21,4.21,0,0,0-2.31-2.68c-5.24-2.53-10.43-5.16-15.66-7.69a13.21,13.21,0,0,1-4.53-20.43c1.55-1.89,1.55-1.9,3.73-.76l27.8,14.51a21.65,21.65,0,0,1,5.32,34.69q-19.11,19.13-38.23,38.27c-.67.67-1,.65-1.57-.09A21.4,21.4,0,0,1,96.47,145.16Z" transform="translate(-34.59 -26.08)"/><path class="cls-3" d="M57.38,71.54a31.74,31.74,0,0,0-2.55,16.85,32.42,32.42,0,0,0,6.8,15.69A20.13,20.13,0,0,1,53.8,93.41,22.62,22.62,0,0,1,57.38,71.54Z" transform="translate(-34.59 -26.08)"/><path class="cls-3" d="M55.58,101.83c-7.71-2.6-10-20.37-3.32-26.62C48.08,84.91,49.34,93.59,55.58,101.83Z" transform="translate(-34.59 -26.08)"/><path class="cls-3" d="M150,118.46c4.7-12.42,2.35-23.29-6.53-32.79,3.05.08,8.8,8,10.37,14.42C155.67,107.65,152.7,116.4,150,118.46Z" transform="translate(-34.59 -26.08)"/><path class="cls-3" d="M155.21,114.08c3.54-9.51,1.91-18.1-4.7-25.78,2-.17,6,5.09,7.37,9.61C159.73,103.85,158.16,111.78,155.21,114.08Z" transform="translate(-34.59 -26.08)"/><polygon class="cls-4" points="388.65 137.62 757.2 137.62 775.83 9.11 407.28 9.11 388.65 137.62"/><path class="cls-5" d="M217.59,144.78a76.62,76.62,0,0,1-18.93-2c-3.35-.85-4.85-3.14-4.49-6.84l.11-1.39q.53-5.57,6.2-5.56h7.8q16.47,0,20.85-6.84a37.51,37.51,0,0,0,2.36-4.28c.49-1.14.41-1.87-.27-2.19s-1.48-.06-2.41.8q-6.74,6.19-17.11,6.73-11,.54-14.48-6.84T196,94.74a74.24,74.24,0,0,1,2.08-9.46,42.27,42.27,0,0,1,2.67-7,16.26,16.26,0,0,1,3.59-4.76,22.51,22.51,0,0,1,4.06-3,16.89,16.89,0,0,1,5-1.66,45.74,45.74,0,0,1,5.51-.75q2.46-.17,6.31-.16a157.78,157.78,0,0,1,25.87,2q6.52,1.08,5.56,8l-4.91,35.29a53.49,53.49,0,0,1-3.59,14,31.42,31.42,0,0,1-5.61,9.2,22.33,22.33,0,0,1-7.54,5.24,32.35,32.35,0,0,1-8.34,2.46A68.4,68.4,0,0,1,217.59,144.78ZM221.33,107q4.48-.86,9.19-7.06a4.87,4.87,0,0,0,1.18-2.88l1.71-11.77c.21-1.78-.57-2.67-2.35-2.67H228.6q-5,0-6.79,2.25t-2.94,9.19q-.75,4.17-1,6.74a14.4,14.4,0,0,0,.1,4.06,3,3,0,0,0,1.07,2A3,3,0,0,0,221.33,107Z" transform="translate(-34.59 -26.08)"/><path class="cls-5" d="M300.56,75.92q1-6.4,7.48-6.41h8.24a6.67,6.67,0,0,1,5.24,1.92c1.14,1.29,1.53,3.1,1.17,5.46l-5.45,39.67q-.75,6.41-7.38,6.41h-4.27q-6.75,0-7.06-6.74v-.1c-.15-1.36-.71-1.61-1.71-.75q-10.17,9.09-20.21,9.09-8.34,0-12.14-4t-2.72-11.39l4.59-33.15q.75-6.4,7.38-6.41h8.56q3.53,0,5.18,1.92c1.11,1.29,1.52,3.1,1.23,5.46L285,102.76q-.43,2.89,2.46,2.89,3.94,0,8.66-3.32a2.44,2.44,0,0,0,1-1.6Z" transform="translate(-34.59 -26.08)"/><path class="cls-5" d="M349.21,69.51a8,8,0,0,1,3.9.85,4.73,4.73,0,0,1,2.2,2.52,8.18,8.18,0,0,1,.32,4l-5.56,39.67c-.58,4.27-3,6.41-7.38,6.41h-8.56c-2.35,0-4.1-.64-5.23-1.92s-1.54-3.1-1.18-5.46l5.56-39.67q.86-6.4,7.38-6.41Zm8.23-26.31c3.14-2.06,5.46-1.39,6.95,2L367,50.9q2.25,4.92-2.78,6.74l-18.93,6.84q-4.49,1.6-6.73-2.56l-.32-.65q-2.46-4.38,1.71-7.05Z" transform="translate(-34.59 -26.08)"/><path class="cls-5" d="M377.33,124.25q-10.9.44-14.49-7.16t-1-22.35q2.78-15.93,9.67-21.33t22-5.4q15.18,0,23.09,1.93,6.42,1.49,5.56,8l-5.45,38.6q-1,6.41-7.38,6.41h-3.95q-6.86,0-7.06-7v-.75c0-1.42-.53-1.64-1.6-.64l-1.61,1.6a32.87,32.87,0,0,1-2.72,2.46,39.17,39.17,0,0,1-3.53,2.46,19,19,0,0,1-5.14,2.2A27.56,27.56,0,0,1,377.33,124.25Zm6.42-19.51c.21,1.82,1.28,2.58,3.21,2.3a11.41,11.41,0,0,0,5.45-2.46,14.69,14.69,0,0,0,3.85-4.38,9,9,0,0,0,.85-2.78l1.71-12.51q.33-2.25-1.92-2.25h-2.67a8.49,8.49,0,0,0-6.2,2.19q-2.25,2.19-3.32,9.25C383.86,99.38,383.53,102.92,383.75,104.74Z" transform="translate(-34.59 -26.08)"/><path class="cls-2" d="M473.18,68a140.56,140.56,0,0,1,21,1.5q6,.64,5.13,7l-.11,1.07q-.75,5.78-6.63,5.78H477.88q-6,0-7.59.16c-1.07.11-1.64.41-1.71.91s.16,1,.91,1.44a23.81,23.81,0,0,0,4.33,1.44l11.65,3.11q13.8,3.73,12.19,16.89-1.17,9.94-7.64,13.37t-19.51,3.42a157.21,157.21,0,0,1-21.18-1.39q-6.19-.86-5.34-7.06l.1-1.07q.86-5.77,6.63-5.77h12.19q8.13,0,10.59-.32c1.64-.22,2.53-.68,2.67-1.39q.1-.75-1-1.29a36.17,36.17,0,0,0-4.81-1.6l-11.23-3.21q-14-4-11.87-18.28,1.06-7.48,6.79-11.12T473.18,68Z" transform="translate(-34.59 -26.08)"/><path class="cls-2" d="M548.35,68.55q11.11,0,14.7,7t1.66,22.19q-1.94,15.08-7.7,20.9t-15,5.83a106,106,0,0,1-14.87-1c-1.49-.22-2.24.42-2.24,1.92a72,72,0,0,1-.75,8.77l-.75,4q-1.06,6.21-7.48,6.21h-8.66c-2.36,0-4.09-.65-5.19-1.93s-1.51-3.1-1.23-5.45l8.66-61.06q.75-6.4,7.38-6.41h4.49q6.74,0,7.06,6.73v.32c.14.93.5,1.15,1.07.65Q539,68.54,548.35,68.55ZM539,86.83a16.88,16.88,0,0,0-7.7,2.89,2.8,2.8,0,0,0-1.49,2.46l-2.25,16.46c-.21,1.5.46,2.25,2,2.25h2.68c3.21,0,5.41-.77,6.63-2.3s2.17-4.94,2.88-10.21a29.67,29.67,0,0,0,.65-8.77A2.89,2.89,0,0,0,539,86.83Z" transform="translate(-34.59 -26.08)"/><path class="cls-2" d="M603.84,68q16.36,0,22.93,6.74T631.1,97.2q-2.13,15.08-9.35,21.07t-23.15,6q-16.26,0-23-6.68t-4.49-22.08q2.14-15.28,9.36-21.38T603.84,68Zm-.43,15.18c-2.85,0-4.83.88-5.93,2.62s-2.09,5.55-2.94,11.39q-1.08,7.38-.16,9.63c.6,1.49,2.3,2.24,5.08,2.24s4.57-.84,5.61-2.51,2-5.37,2.83-11.07c.79-5.06.89-8.37.32-9.94S606.05,83.19,603.41,83.19Z" transform="translate(-34.59 -26.08)"/><path class="cls-2" d="M678.26,68.55q3.63-.54,5.4,1.6c1.17,1.43,1.48,3.39.91,5.88l-1.39,6.42q-1.39,6.09-7.7,6.2a77.65,77.65,0,0,0-11.12,1,2.25,2.25,0,0,0-2,2.14l-3.43,24.81Q658,123,651.53,123H643q-3.53,0-5.18-1.92c-1.11-1.29-1.52-3.1-1.23-5.46l5.56-39.67c.5-4.27,3-6.41,7.38-6.41h4.38q6.09,0,7.06,5.45v.11c.21,1.07.89,1.17,2,.32A32.12,32.12,0,0,1,678.26,68.55Z" transform="translate(-34.59 -26.08)"/><path class="cls-2" d="M707.88,124.47q-8.24,0-12.46-5t-3-13.36l3.1-21.28c.15-1.21-.39-1.82-1.6-1.82h-1a5.15,5.15,0,0,1-5.67-6.31l.11-1.17c.57-3.64,2.63-5.56,6.2-5.78l2.57-.11c1.13-.14,1.74-.67,1.81-1.6l.86-6.09q1-6.42,7.48-6.42h8.13q3.52,0,5.19,1.93t1.22,5.45l-.74,4.81c-.15,1.21.39,1.82,1.6,1.82h4.6a5.74,5.74,0,0,1,4.49,1.66,5.64,5.64,0,0,1,1.07,4.75l-.22,1.5c-.49,3.71-2.6,5.56-6.3,5.56h-5.78a1.58,1.58,0,0,0-1.82,1.6l-2.78,19.36c-.21,1.42-.12,2.35.27,2.78s1.41.64,3,.64h.53q5.67,0,6.21,5.77l.32,3.32q.53,5.88-4.82,6.84A67,67,0,0,1,707.88,124.47Z" transform="translate(-34.59 -26.08)"/><path class="cls-2" d="M761.23,68a140.56,140.56,0,0,1,21,1.5q6,.64,5.13,7l-.1,1.07q-.75,5.78-6.63,5.78H765.94q-6,0-7.59.16c-1.07.11-1.64.41-1.71.91s.16,1,.9,1.44a24.1,24.1,0,0,0,4.33,1.44l11.66,3.11q13.8,3.73,12.19,16.89-1.19,9.94-7.65,13.37t-19.51,3.42a157.17,157.17,0,0,1-21.17-1.39q-6.21-.86-5.35-7.06l.11-1.07q.86-5.77,6.63-5.77H751q8.12,0,10.58-.32c1.64-.22,2.53-.68,2.68-1.39.07-.5-.25-.93-1-1.29a35.63,35.63,0,0,0-4.81-1.6l-11.22-3.21q-14-4-11.87-18.28,1.07-7.48,6.79-11.12T761.23,68Z" transform="translate(-34.59 -26.08)"/></svg>